<svg xmlns="http://www.w3.org/2000/svg" viewBox="0 0 686.72 153.21"><defs><style>.cls-1,.cls-3,.cls-4{fill:#3f599c;}.cls-1,.cls-2,.cls-3{stroke:#3f599c;stroke-miterlimit:10;}.cls-1,.cls-2{stroke-width:4px;}.cls-2{fill:none;}.cls-5{fill:#fff;}.cls-6{fill:#ea5061;}</style></defs><g id="Layer_2" data-name="Layer 2"><g id="Livello_1" data-name="Livello 1"><line class="cls-1" x1="250.41" y1="151.05" x2="250.41" y2="117.61"/><path class="cls-2" d="M1.62,150.56l9.73-13.49.57-.79.47-.65,1-1.4L24,119.51a1.14,1.14,0,0,1,1.56-.17v12.78l0,2.26v17.07"/><line class="cls-2" x1="25.58" y1="137.49" x2="11.19" y2="137.49"/><line class="cls-1" x1="313.09" y1="134.24" x2="302.84" y2="134.24"/><polyline class="cls-2" points="315.34 149.12 302.84 149.12 302.84 147.45 302.84 119.36 315.34 119.36"/><line class="cls-1" x1="233.18" y1="151.05" x2="233.18" y2="117.61"/><line class="cls-1" x1="231.28" y1="134.33" x2="252.01" y2="134.33"/><path class="cls-3" d="M331.82,147.55c4.45,0,6.77-2.76,7.24-5.28.56-4-2.27-6-5.61-6.82l-4-1c-6.13-1.49-6.94-5.37-6.94-8.08,0-5.23,4.54-8.78,9.25-8.78a8.84,8.84,0,0,1,9.25,9.2H338.2c0-3.74-2.78-6.12-6.42-6.12-3.25,0-6.42,2.29-6.42,5.7,0,1.68.55,4.06,4.71,5.09l4,1c4.71,1.17,8.61,4.21,7.75,10.37-.68,3.74-3.94,7.8-10,7.8a9.68,9.68,0,0,1-9.55-9.71h2.83A6.7,6.7,0,0,0,331.82,147.55Z"/><path class="cls-3" d="M215.23,148c4.45,0,6.75-2.75,7.23-5.27.55-4-2.27-6-5.6-6.81l-4-1c-6.11-1.5-6.92-5.36-6.92-8.07,0-5.22,4.53-8.76,9.23-8.76a8.83,8.83,0,0,1,9.23,9.18H221.6c0-3.73-2.78-6.11-6.41-6.11-3.25,0-6.41,2.29-6.41,5.69,0,1.68.56,4.06,4.7,5.08l4,1c4.7,1.17,8.59,4.2,7.73,10.35-.68,3.73-3.93,7.79-10,7.79a9.67,9.67,0,0,1-9.53-9.7h2.83A6.68,6.68,0,0,0,215.23,148Z"/><path class="cls-3" d="M109.49,134.47a16.73,16.73,0,0,1,1.24-6.45,16.1,16.1,0,0,1,8.54-8.82,16.23,16.23,0,0,1,12.73,0,16.25,16.25,0,0,1,5.13,3.55,16.53,16.53,0,0,1,3.42,5.27,17.42,17.42,0,0,1,0,12.91,16.48,16.48,0,0,1-3.42,5.26,16.09,16.09,0,0,1-5.13,3.55,16.12,16.12,0,0,1-12.73,0,16.13,16.13,0,0,1-8.54-8.81A16.81,16.81,0,0,1,109.49,134.47Zm3.33,0a14.3,14.3,0,0,0,1,5.27,14.68,14.68,0,0,0,2.72,4.46,13.18,13.18,0,0,0,4.07,3.11,11.44,11.44,0,0,0,10.08,0,13.42,13.42,0,0,0,4.07-3.11,14.88,14.88,0,0,0,2.72-4.46,14.3,14.3,0,0,0,1-5.27,13.92,13.92,0,0,0-1-5.22,14.1,14.1,0,0,0-2.72-4.35,13.56,13.56,0,0,0-4.07-3,11.9,11.9,0,0,0-10.08,0,13.32,13.32,0,0,0-4.07,3,14.14,14.14,0,0,0-3.71,9.57Z"/><line class="cls-1" x1="78.87" y1="151.05" x2="78.87" y2="119.1"/><line class="cls-1" x1="72.28" y1="119.1" x2="85.46" y2="119.1"/><path class="cls-3" d="M40,134.33a14.19,14.19,0,0,0,1,5.22A14.57,14.57,0,0,0,43.66,144a13.11,13.11,0,0,0,4,3.08,10.64,10.64,0,0,0,4.92,1.16,11,11,0,0,0,4.88-1.11,12.58,12.58,0,0,0,4-3,6.7,6.7,0,0,1,1.14.84,4.1,4.1,0,0,1,.92,1.34,14.94,14.94,0,0,1-4.9,3.31,15.18,15.18,0,0,1-6,1.18,15,15,0,0,1-6.21-1.29,15.71,15.71,0,0,1-5-3.52A16.1,16.1,0,0,1,38,140.73a17.53,17.53,0,0,1,0-12.8,16.1,16.1,0,0,1,3.34-5.22,15.87,15.87,0,0,1,5-3.52,15,15,0,0,1,6.21-1.29,15.15,15.15,0,0,1,6,1.2,15.36,15.36,0,0,1,4.93,3.34,5.44,5.44,0,0,1-.91,1.43,3.9,3.9,0,0,1-1.25.84,13.89,13.89,0,0,0-4-2.84,11,11,0,0,0-4.84-1.11,11.12,11.12,0,0,0-4.92,1.11,12.92,12.92,0,0,0-4,3A14.18,14.18,0,0,0,40,134.33Z"/><polygon class="cls-4" points="24.31 108.05 89.03 0 108.4 0 108.4 108.05 87.33 108.05 87.33 42.81 51.66 108.05 24.31 108.05"/><polygon class="cls-4" points="184.22 0 184.22 20.9 206.81 20.9 206.81 108.05 222.78 108.05 222.78 20.9 245.21 20.9 245.21 0 184.22 0"/><polygon class="cls-4" points="326.86 0 353.7 42.81 380.54 0 405.34 0 342.49 108.05 319.38 108.05 318.7 102.27 341.13 63.2 301.04 0 326.86 0"/><line class="cls-1" x1="97.44" y1="151.41" x2="97.44" y2="117.9"/><rect class="cls-4" x="316.74" y="104.23" width="5.78" height="1.85" transform="translate(214.06 424.65) rotate(-89.93)"/><path class="cls-4" d="M186.93,66.21l-.14-66L167.8,0l-.15,67.83c-.81,10-6.2,16.46-14.08,17.63-11,1.63-18.48-4.93-19.12-17.38v-.41L134.31.17l-19-.17-.15,71.42h.06c0,.64,0,1.27,0,1.91-.48,13.38,12.8,30.85,27.47,33.83,18,3.67,33-4.13,40.68-20.63,2.71-5.78,3.47-11.79,3.56-18h0Z"/><rect class="cls-5" x="427.78" y="0.58" width="258.94" height="152.63"/><rect id="stripe" class="cls-6" x="427.78" y="0.58" width="258.94" height="11.74"/><rect class="cls-6" x="427.78" y="24.06" width="258.94" height="11.74"/><rect class="cls-6" x="427.78" y="47.55" width="258.94" height="11.74"/><rect class="cls-6" x="427.78" y="71.03" width="258.94" height="11.74"/><rect class="cls-6" x="427.78" y="94.51" width="258.94" height="11.74"/><rect class="cls-6" x="427.78" y="117.99" width="258.94" height="11.74"/><rect class="cls-6" x="427.78" y="141.47" width="258.94" height="11.74"/><rect class="cls-4" x="427.78" y="0.58" width="103.58" height="82.18"/><g id="u"><g id="x4"><g id="s6"><g id="s5"><g id="star"><polygon id="pt" class="cls-5" points="437.74 9.61 434.17 12.51 435.53 7.81 437.74 9.61"/><polygon class="cls-5" points="436.21 10.16 432.64 7.26 437.06 7.26 436.21 10.16"/><polygon class="cls-5" points="435.27 8.71 436.64 4.01 438 8.71 435.27 8.71"/><polygon class="cls-5" points="436.21 7.26 440.63 7.26 437.06 10.16 436.21 7.26"/><polygon class="cls-5" points="437.74 7.81 439.1 12.51 435.53 9.61 437.74 7.81"/></g><polygon class="cls-5" points="454.91 9.61 451.34 12.51 452.7 7.81 454.91 9.61"/><polygon class="cls-5" points="453.39 10.16 449.82 7.26 454.23 7.26 453.39 10.16"/><polygon class="cls-5" points="452.44 8.71 453.81 4.01 455.17 8.71 452.44 8.71"/><polygon class="cls-5" points="453.39 7.26 457.8 7.26 454.23 10.16 453.39 7.26"/><polygon class="cls-5" points="454.91 7.81 456.27 12.51 452.7 9.61 454.91 7.81"/><polygon class="cls-5" points="472.08 9.61 468.51 12.51 469.88 7.81 472.08 9.61"/><polygon class="cls-5" points="470.56 10.16 466.99 7.26 471.4 7.26 470.56 10.16"/><polygon class="cls-5" points="469.62 8.71 470.98 4.01 472.34 8.71 469.62 8.71"/><polygon class="cls-5" points="470.56 7.26 474.97 7.26 471.4 10.16 470.56 7.26"/><polygon class="cls-5" points="472.08 7.81 473.45 12.51 469.88 9.61 472.08 7.81"/><polygon class="cls-5" points="489.25 9.61 485.69 12.51 487.05 7.81 489.25 9.61"/><polygon class="cls-5" points="487.73 10.16 484.16 7.26 488.57 7.26 487.73 10.16"/><polygon class="cls-5" points="486.79 8.71 488.15 4.01 489.52 8.71 486.79 8.71"/><polygon class="cls-5" points="487.73 7.26 492.14 7.26 488.57 10.16 487.73 7.26"/><polygon class="cls-5" points="489.25 7.81 490.62 12.51 487.05 9.61 489.25 7.81"/><polygon class="cls-5" points="506.43 9.61 502.86 12.51 504.22 7.81 506.43 9.61"/><polygon class="cls-5" points="504.9 10.16 501.33 7.26 505.75 7.26 504.9 10.16"/><polygon class="cls-5" points="503.96 8.71 505.32 4.01 506.69 8.71 503.96 8.71"/><polygon class="cls-5" points="504.9 7.26 509.32 7.26 505.75 10.16 504.9 7.26"/><polygon class="cls-5" points="506.43 7.81 507.79 12.51 504.22 9.61 506.43 7.81"/></g><polygon class="cls-5" points="523.6 9.61 520.03 12.51 521.39 7.81 523.6 9.61"/><polygon class="cls-5" points="522.07 10.16 518.5 7.26 522.92 7.26 522.07 10.16"/><polygon class="cls-5" points="521.13 8.71 522.5 4.01 523.86 8.71 521.13 8.71"/><polygon class="cls-5" points="522.07 7.26 526.49 7.26 522.92 10.16 522.07 7.26"/><polygon class="cls-5" points="523.6 7.81 524.96 12.51 521.39 9.61 523.6 7.81"/></g><polygon class="cls-5" points="446.32 17.85 442.75 20.75 444.12 16.05 446.32 17.85"/><polygon class="cls-5" points="444.8 18.4 441.23 15.5 445.64 15.5 444.8 18.4"/><polygon class="cls-5" points="443.86 16.95 445.22 12.25 446.59 16.95 443.86 16.95"/><polygon class="cls-5" points="444.8 15.5 449.21 15.5 445.64 18.4 444.8 15.5"/><polygon class="cls-5" points="446.32 16.05 447.69 20.75 444.12 17.85 446.32 16.05"/><polygon class="cls-5" points="463.5 17.85 459.93 20.75 461.29 16.05 463.5 17.85"/><polygon class="cls-5" points="461.97 18.4 458.4 15.5 462.81 15.5 461.97 18.4"/><polygon class="cls-5" points="461.03 16.95 462.39 12.25 463.76 16.95 461.03 16.95"/><polygon class="cls-5" points="461.97 15.5 466.39 15.5 462.81 18.4 461.97 15.5"/><polygon class="cls-5" points="463.5 16.05 464.86 20.75 461.29 17.85 463.5 16.05"/><polygon class="cls-5" points="480.67 17.85 477.1 20.75 478.46 16.05 480.67 17.85"/><polygon class="cls-5" points="479.14 18.4 475.57 15.5 479.99 15.5 479.14 18.4"/><polygon class="cls-5" points="478.2 16.95 479.57 12.25 480.93 16.95 478.2 16.95"/><polygon class="cls-5" points="479.14 15.5 483.56 15.5 479.99 18.4 479.14 15.5"/><polygon class="cls-5" points="480.67 16.05 482.03 20.75 478.46 17.85 480.67 16.05"/><polygon class="cls-5" points="497.84 17.85 494.27 20.75 495.63 16.05 497.84 17.85"/><polygon class="cls-5" points="496.32 18.4 492.75 15.5 497.16 15.5 496.32 18.4"/><polygon class="cls-5" points="495.37 16.95 496.74 12.25 498.1 16.95 495.37 16.95"/><polygon class="cls-5" points="496.32 15.5 500.73 15.5 497.16 18.4 496.32 15.5"/><polygon class="cls-5" points="497.84 16.05 499.2 20.75 495.63 17.85 497.84 16.05"/><polygon class="cls-5" points="515.01 17.85 511.44 20.75 512.81 16.05 515.01 17.85"/><polygon class="cls-5" points="513.49 18.4 509.92 15.5 514.33 15.5 513.49 18.4"/><polygon class="cls-5" points="512.55 16.95 513.91 12.25 515.27 16.95 512.55 16.95"/><polygon class="cls-5" points="513.49 15.5 517.9 15.5 514.33 18.4 513.49 15.5"/><polygon class="cls-5" points="515.01 16.05 516.38 20.75 512.81 17.85 515.01 16.05"/><polygon class="cls-5" points="437.74 26.09 434.17 29 435.53 24.29 437.74 26.09"/><polygon class="cls-5" points="436.21 26.64 432.64 23.74 437.06 23.74 436.21 26.64"/><polygon class="cls-5" points="435.27 25.19 436.64 20.49 438 25.19 435.27 25.19"/><polygon class="cls-5" points="436.21 23.74 440.63 23.74 437.06 26.64 436.21 23.74"/><polygon class="cls-5" points="437.74 24.29 439.1 29 435.53 26.09 437.74 24.29"/><polygon class="cls-5" points="454.91 26.09 451.34 29 452.7 24.29 454.91 26.09"/><polygon class="cls-5" points="453.39 26.64 449.82 23.74 454.23 23.74 453.39 26.64"/><polygon class="cls-5" points="452.44 25.19 453.81 20.49 455.17 25.19 452.44 25.19"/><polygon class="cls-5" points="453.39 23.74 457.8 23.74 454.23 26.64 453.39 23.74"/><polygon class="cls-5" points="454.91 24.29 456.27 29 452.7 26.09 454.91 24.29"/><polygon class="cls-5" points="472.08 26.09 468.51 29 469.88 24.29 472.08 26.09"/><polygon class="cls-5" points="470.56 26.64 466.99 23.74 471.4 23.74 470.56 26.64"/><polygon class="cls-5" points="469.62 25.19 470.98 20.49 472.34 25.19 469.62 25.19"/><polygon class="cls-5" points="470.56 23.74 474.97 23.74 471.4 26.64 470.56 23.74"/><polygon class="cls-5" points="472.08 24.29 473.45 29 469.88 26.09 472.08 24.29"/><polygon class="cls-5" points="489.25 26.09 485.69 29 487.05 24.29 489.25 26.09"/><polygon class="cls-5" points="487.73 26.64 484.16 23.74 488.57 23.74 487.73 26.64"/><polygon class="cls-5" points="486.79 25.19 488.15 20.49 489.52 25.19 486.79 25.19"/><polygon class="cls-5" points="487.73 23.74 492.14 23.74 488.57 26.64 487.73 23.74"/><polygon class="cls-5" points="489.25 24.29 490.62 29 487.05 26.09 489.25 24.29"/><polygon class="cls-5" points="506.43 26.09 502.86 29 504.22 24.29 506.43 26.09"/><polygon class="cls-5" points="504.9 26.64 501.33 23.74 505.75 23.74 504.9 26.64"/><polygon class="cls-5" points="503.96 25.19 505.32 20.49 506.69 25.19 503.96 25.19"/><polygon class="cls-5" points="504.9 23.74 509.32 23.74 505.75 26.64 504.9 23.74"/><polygon class="cls-5" points="506.43 24.29 507.79 29 504.22 26.09 506.43 24.29"/><polygon class="cls-5" points="523.6 26.09 520.03 29 521.39 24.29 523.6 26.09"/><polygon class="cls-5" points="522.07 26.64 518.5 23.74 522.92 23.74 522.07 26.64"/><polygon class="cls-5" points="521.13 25.19 522.5 20.49 523.86 25.19 521.13 25.19"/><polygon class="cls-5" points="522.07 23.74 526.49 23.74 522.92 26.64 522.07 23.74"/><polygon class="cls-5" points="523.6 24.29 524.96 29 521.39 26.09 523.6 24.29"/><polygon class="cls-5" points="446.32 34.33 442.75 37.24 444.12 32.54 446.32 34.33"/><polygon class="cls-5" points="444.8 34.89 441.23 31.98 445.64 31.98 444.8 34.89"/><polygon class="cls-5" points="443.86 33.43 445.22 28.73 446.59 33.43 443.86 33.43"/><polygon class="cls-5" points="444.8 31.98 449.21 31.98 445.64 34.89 444.8 31.98"/><polygon class="cls-5" points="446.32 32.54 447.69 37.24 444.12 34.33 446.32 32.54"/><polygon class="cls-5" points="463.5 34.33 459.93 37.24 461.29 32.54 463.5 34.33"/><polygon class="cls-5" points="461.97 34.89 458.4 31.98 462.81 31.98 461.97 34.89"/><polygon class="cls-5" points="461.03 33.43 462.39 28.73 463.76 33.43 461.03 33.43"/><polygon class="cls-5" points="461.97 31.98 466.39 31.98 462.81 34.89 461.97 31.98"/><polygon class="cls-5" points="463.5 32.54 464.86 37.24 461.29 34.33 463.5 32.54"/><polygon class="cls-5" points="480.67 34.33 477.1 37.24 478.46 32.54 480.67 34.33"/><polygon class="cls-5" points="479.14 34.89 475.57 31.98 479.99 31.98 479.14 34.89"/><polygon class="cls-5" points="478.2 33.43 479.57 28.73 480.93 33.43 478.2 33.43"/><polygon class="cls-5" points="479.14 31.98 483.56 31.98 479.99 34.89 479.14 31.98"/><polygon class="cls-5" points="480.67 32.54 482.03 37.24 478.46 34.33 480.67 32.54"/><polygon class="cls-5" points="497.84 34.33 494.27 37.24 495.63 32.54 497.84 34.33"/><polygon class="cls-5" points="496.32 34.89 492.75 31.98 497.16 31.98 496.32 34.89"/><polygon class="cls-5" points="495.37 33.43 496.74 28.73 498.1 33.43 495.37 33.43"/><polygon class="cls-5" points="496.32 31.98 500.73 31.98 497.16 34.89 496.32 31.98"/><polygon class="cls-5" points="497.84 32.54 499.2 37.24 495.63 34.33 497.84 32.54"/><polygon class="cls-5" points="515.01 34.33 511.44 37.24 512.81 32.54 515.01 34.33"/><polygon class="cls-5" points="513.49 34.89 509.92 31.98 514.33 31.98 513.49 34.89"/><polygon class="cls-5" points="512.55 33.43 513.91 28.73 515.27 33.43 512.55 33.43"/><polygon class="cls-5" points="513.49 31.98 517.9 31.98 514.33 34.89 513.49 31.98"/><polygon class="cls-5" points="515.01 32.54 516.38 37.24 512.81 34.33 515.01 32.54"/></g><polygon class="cls-5" points="437.74 42.57 434.17 45.48 435.53 40.78 437.74 42.57"/><polygon class="cls-5" points="436.21 43.13 432.64 40.22 437.06 40.22 436.21 43.13"/><polygon class="cls-5" points="435.27 41.67 436.64 36.97 438 41.67 435.27 41.67"/><polygon class="cls-5" points="436.21 40.22 440.63 40.22 437.06 43.13 436.21 40.22"/><polygon class="cls-5" points="437.74 40.78 439.1 45.48 435.53 42.57 437.74 40.78"/><polygon class="cls-5" points="454.91 42.57 451.34 45.48 452.7 40.78 454.91 42.57"/><polygon class="cls-5" points="453.39 43.13 449.82 40.22 454.23 40.22 453.39 43.13"/><polygon class="cls-5" points="452.44 41.67 453.81 36.97 455.17 41.67 452.44 41.67"/><polygon class="cls-5" points="453.39 40.22 457.8 40.22 454.23 43.13 453.39 40.22"/><polygon class="cls-5" points="454.91 40.78 456.27 45.48 452.7 42.57 454.91 40.78"/><polygon class="cls-5" points="472.08 42.57 468.51 45.48 469.88 40.78 472.08 42.57"/><polygon class="cls-5" points="470.56 43.13 466.99 40.22 471.4 40.22 470.56 43.13"/><polygon class="cls-5" points="469.62 41.67 470.98 36.97 472.34 41.67 469.62 41.67"/><polygon class="cls-5" points="470.56 40.22 474.97 40.22 471.4 43.13 470.56 40.22"/><polygon class="cls-5" points="472.08 40.78 473.45 45.48 469.88 42.57 472.08 40.78"/><polygon class="cls-5" points="489.25 42.57 485.69 45.48 487.05 40.78 489.25 42.57"/><polygon class="cls-5" points="487.73 43.13 484.16 40.22 488.57 40.22 487.73 43.13"/><polygon class="cls-5" points="486.79 41.67 488.15 36.97 489.52 41.67 486.79 41.67"/><polygon class="cls-5" points="487.73 40.22 492.14 40.22 488.57 43.13 487.73 40.22"/><polygon class="cls-5" points="489.25 40.78 490.62 45.48 487.05 42.57 489.25 40.78"/><polygon class="cls-5" points="506.43 42.57 502.86 45.48 504.22 40.78 506.43 42.57"/><polygon class="cls-5" points="504.9 43.13 501.33 40.22 505.75 40.22 504.9 43.13"/><polygon class="cls-5" points="503.96 41.67 505.32 36.97 506.69 41.67 503.96 41.67"/><polygon class="cls-5" points="504.9 40.22 509.32 40.22 505.75 43.13 504.9 40.22"/><polygon class="cls-5" points="506.43 40.78 507.79 45.48 504.22 42.57 506.43 40.78"/><polygon class="cls-5" points="523.6 42.57 520.03 45.48 521.39 40.78 523.6 42.57"/><polygon class="cls-5" points="522.07 43.13 518.5 40.22 522.92 40.22 522.07 43.13"/><polygon class="cls-5" points="521.13 41.67 522.5 36.97 523.86 41.67 521.13 41.67"/><polygon class="cls-5" points="522.07 40.22 526.49 40.22 522.92 43.13 522.07 40.22"/><polygon class="cls-5" points="523.6 40.78 524.96 45.48 521.39 42.57 523.6 40.78"/><polygon class="cls-5" points="446.32 50.81 442.75 53.72 444.12 49.02 446.32 50.81"/><polygon class="cls-5" points="444.8 51.37 441.23 48.46 445.64 48.46 444.8 51.37"/><polygon class="cls-5" points="443.86 49.92 445.22 45.22 446.59 49.92 443.86 49.92"/><polygon class="cls-5" points="444.8 48.46 449.21 48.46 445.64 51.37 444.8 48.46"/><polygon class="cls-5" points="446.32 49.02 447.69 53.72 444.12 50.81 446.32 49.02"/><polygon class="cls-5" points="463.5 50.81 459.93 53.72 461.29 49.02 463.5 50.81"/><polygon class="cls-5" points="461.97 51.37 458.4 48.46 462.81 48.46 461.97 51.37"/><polygon class="cls-5" points="461.03 49.92 462.39 45.22 463.76 49.92 461.03 49.92"/><polygon class="cls-5" points="461.97 48.46 466.39 48.46 462.81 51.37 461.97 48.46"/><polygon class="cls-5" points="463.5 49.02 464.86 53.72 461.29 50.81 463.5 49.02"/><polygon class="cls-5" points="480.67 50.81 477.1 53.72 478.46 49.02 480.67 50.81"/><polygon class="cls-5" points="479.14 51.37 475.57 48.46 479.99 48.46 479.14 51.37"/><polygon class="cls-5" points="478.2 49.92 479.57 45.22 480.93 49.92 478.2 49.92"/><polygon class="cls-5" points="479.14 48.46 483.56 48.46 479.99 51.37 479.14 48.46"/><polygon class="cls-5" points="480.67 49.02 482.03 53.72 478.46 50.81 480.67 49.02"/><polygon class="cls-5" points="497.84 50.81 494.27 53.72 495.63 49.02 497.84 50.81"/><polygon class="cls-5" points="496.32 51.37 492.75 48.46 497.16 48.46 496.32 51.37"/><polygon class="cls-5" points="495.37 49.92 496.74 45.22 498.1 49.92 495.37 49.92"/><polygon class="cls-5" points="496.32 48.46 500.73 48.46 497.16 51.37 496.32 48.46"/><polygon class="cls-5" points="497.84 49.02 499.2 53.72 495.63 50.81 497.84 49.02"/><polygon class="cls-5" points="515.01 50.81 511.44 53.72 512.81 49.02 515.01 50.81"/><polygon class="cls-5" points="513.49 51.37 509.92 48.46 514.33 48.46 513.49 51.37"/><polygon class="cls-5" points="512.55 49.92 513.91 45.22 515.27 49.92 512.55 49.92"/><polygon class="cls-5" points="513.49 48.46 517.9 48.46 514.33 51.37 513.49 48.46"/><polygon class="cls-5" points="515.01 49.02 516.38 53.72 512.81 50.81 515.01 49.02"/><polygon class="cls-5" points="437.74 59.06 434.17 61.96 435.53 57.26 437.74 59.06"/><polygon class="cls-5" points="436.21 59.61 432.64 56.71 437.06 56.71 436.21 59.61"/><polygon class="cls-5" points="435.27 58.16 436.64 53.46 438 58.16 435.27 58.16"/><polygon class="cls-5" points="436.21 56.71 440.63 56.71 437.06 59.61 436.21 56.71"/><polygon class="cls-5" points="437.74 57.26 439.1 61.96 435.53 59.06 437.74 57.26"/><polygon class="cls-5" points="454.91 59.06 451.34 61.96 452.7 57.26 454.91 59.06"/><polygon class="cls-5" points="453.39 59.61 449.82 56.71 454.23 56.71 453.39 59.61"/><polygon class="cls-5" points="452.44 58.16 453.81 53.46 455.17 58.16 452.44 58.16"/><polygon class="cls-5" points="453.39 56.71 457.8 56.71 454.23 59.61 453.39 56.71"/><polygon class="cls-5" points="454.91 57.26 456.27 61.96 452.7 59.06 454.91 57.26"/><polygon class="cls-5" points="472.08 59.06 468.51 61.96 469.88 57.26 472.08 59.06"/><polygon class="cls-5" points="470.56 59.61 466.99 56.71 471.4 56.71 470.56 59.61"/><polygon class="cls-5" points="469.62 58.16 470.98 53.46 472.34 58.16 469.62 58.16"/><polygon class="cls-5" points="470.56 56.71 474.97 56.71 471.4 59.61 470.56 56.71"/><polygon class="cls-5" points="472.08 57.26 473.45 61.96 469.88 59.06 472.08 57.26"/><polygon class="cls-5" points="489.25 59.06 485.69 61.96 487.05 57.26 489.25 59.06"/><polygon class="cls-5" points="487.73 59.61 484.16 56.71 488.57 56.71 487.73 59.61"/><polygon class="cls-5" points="486.79 58.16 488.15 53.46 489.52 58.16 486.79 58.16"/><polygon class="cls-5" points="487.73 56.71 492.14 56.71 488.57 59.61 487.73 56.71"/><polygon class="cls-5" points="489.25 57.26 490.62 61.96 487.05 59.06 489.25 57.26"/><polygon class="cls-5" points="506.43 59.06 502.86 61.96 504.22 57.26 506.43 59.06"/><polygon class="cls-5" points="504.9 59.61 501.33 56.71 505.75 56.71 504.9 59.61"/><polygon class="cls-5" points="503.96 58.16 505.32 53.46 506.69 58.16 503.96 58.16"/><polygon class="cls-5" points="504.9 56.71 509.32 56.71 505.75 59.61 504.9 56.71"/><polygon class="cls-5" points="506.43 57.26 507.79 61.96 504.22 59.06 506.43 57.26"/><polygon class="cls-5" points="523.6 59.06 520.03 61.96 521.39 57.26 523.6 59.06"/><polygon class="cls-5" points="522.07 59.61 518.5 56.71 522.92 56.71 522.07 59.61"/><polygon class="cls-5" points="521.13 58.16 522.5 53.46 523.86 58.16 521.13 58.16"/><polygon class="cls-5" points="522.07 56.71 526.49 56.71 522.92 59.61 522.07 56.71"/><polygon class="cls-5" points="523.6 57.26 524.96 61.96 521.39 59.06 523.6 57.26"/><polygon class="cls-5" points="446.32 67.3 442.75 70.2 444.12 65.5 446.32 67.3"/><polygon class="cls-5" points="444.8 67.85 441.23 64.95 445.64 64.95 444.8 67.85"/><polygon class="cls-5" points="443.86 66.4 445.22 61.7 446.59 66.4 443.86 66.4"/><polygon class="cls-5" points="444.8 64.95 449.21 64.95 445.64 67.85 444.8 64.95"/><polygon class="cls-5" points="446.32 65.5 447.69 70.2 444.12 67.3 446.32 65.5"/><polygon class="cls-5" points="463.5 67.3 459.93 70.2 461.29 65.5 463.5 67.3"/><polygon class="cls-5" points="461.97 67.85 458.4 64.95 462.81 64.95 461.97 67.85"/><polygon class="cls-5" points="461.03 66.4 462.39 61.7 463.76 66.4 461.03 66.4"/><polygon class="cls-5" points="461.97 64.95 466.39 64.95 462.81 67.85 461.97 64.95"/><polygon class="cls-5" points="463.5 65.5 464.86 70.2 461.29 67.3 463.5 65.5"/><polygon class="cls-5" points="480.67 67.3 477.1 70.2 478.46 65.5 480.67 67.3"/><polygon class="cls-5" points="479.14 67.85 475.57 64.95 479.99 64.95 479.14 67.85"/><polygon class="cls-5" points="478.2 66.4 479.57 61.7 480.93 66.4 478.2 66.4"/><polygon class="cls-5" points="479.14 64.95 483.56 64.95 479.99 67.85 479.14 64.95"/><polygon class="cls-5" points="480.67 65.5 482.03 70.2 478.46 67.3 480.67 65.5"/><polygon class="cls-5" points="497.84 67.3 494.27 70.2 495.63 65.5 497.84 67.3"/><polygon class="cls-5" points="496.32 67.85 492.75 64.95 497.16 64.95 496.32 67.85"/><polygon class="cls-5" points="495.37 66.4 496.74 61.7 498.1 66.4 495.37 66.4"/><polygon class="cls-5" points="496.32 64.95 500.73 64.95 497.16 67.85 496.32 64.95"/><polygon class="cls-5" points="497.84 65.5 499.2 70.2 495.63 67.3 497.84 65.5"/><polygon class="cls-5" points="515.01 67.3 511.44 70.2 512.81 65.5 515.01 67.3"/><polygon class="cls-5" points="513.49 67.85 509.92 64.95 514.33 64.95 513.49 67.85"/><polygon class="cls-5" points="512.55 66.4 513.91 61.7 515.27 66.4 512.55 66.4"/><polygon class="cls-5" points="513.49 64.95 517.9 64.95 514.33 67.85 513.49 64.95"/><polygon class="cls-5" points="515.01 65.5 516.38 70.2 512.81 67.3 515.01 65.5"/><polygon class="cls-5" points="437.74 75.54 434.17 78.44 435.53 73.74 437.74 75.54"/><polygon class="cls-5" points="436.21 76.09 432.64 73.19 437.06 73.19 436.21 76.09"/><polygon class="cls-5" points="435.27 74.64 436.64 69.94 438 74.64 435.27 74.64"/><polygon class="cls-5" points="436.21 73.19 440.63 73.19 437.06 76.09 436.21 73.19"/><polygon class="cls-5" points="437.74 73.74 439.1 78.44 435.53 75.54 437.74 73.74"/><polygon class="cls-5" points="454.91 75.54 451.34 78.44 452.7 73.74 454.91 75.54"/><polygon class="cls-5" points="453.39 76.09 449.82 73.19 454.23 73.19 453.39 76.09"/><polygon class="cls-5" points="452.44 74.64 453.81 69.94 455.17 74.64 452.44 74.64"/><polygon class="cls-5" points="453.39 73.19 457.8 73.19 454.23 76.09 453.39 73.19"/><polygon class="cls-5" points="454.91 73.74 456.27 78.44 452.7 75.54 454.91 73.74"/><polygon class="cls-5" points="472.08 75.54 468.51 78.44 469.88 73.74 472.08 75.54"/><polygon class="cls-5" points="470.56 76.09 466.99 73.19 471.4 73.19 470.56 76.09"/><polygon class="cls-5" points="469.62 74.64 470.98 69.94 472.34 74.64 469.62 74.64"/><polygon class="cls-5" points="470.56 73.19 474.97 73.19 471.4 76.09 470.56 73.19"/><polygon class="cls-5" points="472.08 73.74 473.45 78.44 469.88 75.54 472.08 73.74"/><polygon class="cls-5" points="489.25 75.54 485.69 78.44 487.05 73.74 489.25 75.54"/><polygon class="cls-5" points="487.73 76.09 484.16 73.19 488.57 73.19 487.73 76.09"/><polygon class="cls-5" points="486.79 74.64 488.15 69.94 489.52 74.64 486.79 74.64"/><polygon class="cls-5" points="487.73 73.19 492.14 73.19 488.57 76.09 487.73 73.19"/><polygon class="cls-5" points="489.25 73.74 490.62 78.44 487.05 75.54 489.25 73.74"/><polygon class="cls-5" points="506.43 75.54 502.86 78.44 504.22 73.74 506.43 75.54"/><polygon class="cls-5" points="504.9 76.09 501.33 73.19 505.75 73.19 504.9 76.09"/><polygon class="cls-5" points="503.96 74.64 505.32 69.94 506.69 74.64 503.96 74.64"/><polygon class="cls-5" points="504.9 73.19 509.32 73.19 505.75 76.09 504.9 73.19"/><polygon class="cls-5" points="506.43 73.74 507.79 78.44 504.22 75.54 506.43 73.74"/><polygon class="cls-5" points="523.6 75.54 520.03 78.44 521.39 73.74 523.6 75.54"/><polygon class="cls-5" points="522.07 76.09 518.5 73.19 522.92 73.19 522.07 76.09"/><polygon class="cls-5" points="521.13 74.64 522.5 69.94 523.86 74.64 521.13 74.64"/><polygon class="cls-5" points="522.07 73.19 526.49 73.19 522.92 76.09 522.07 73.19"/><polygon class="cls-5" points="523.6 73.74 524.96 78.44 521.39 75.54 523.6 73.74"/></g><path class="cls-3" d="M260.47,134.12a16.73,16.73,0,0,1,1.24-6.45,16.16,16.16,0,0,1,8.55-8.82,16.23,16.23,0,0,1,12.73,0,16.19,16.19,0,0,1,8.54,8.82,17.42,17.42,0,0,1,0,12.91,16.21,16.21,0,0,1-8.54,8.81,16.23,16.23,0,0,1-12.73,0,16.19,16.19,0,0,1-8.55-8.81A16.81,16.81,0,0,1,260.47,134.12Zm3.33,0a14.3,14.3,0,0,0,1,5.27,14.88,14.88,0,0,0,2.72,4.46,13.45,13.45,0,0,0,4.07,3.11,11.44,11.44,0,0,0,10.08,0,13.33,13.33,0,0,0,4.07-3.11,14.88,14.88,0,0,0,2.72-4.46,14.3,14.3,0,0,0,1-5.27,13.92,13.92,0,0,0-1-5.22,14.1,14.1,0,0,0-2.72-4.35,13.32,13.32,0,0,0-4.07-3,11.9,11.9,0,0,0-10.08,0,13.44,13.44,0,0,0-4.07,3,14.1,14.1,0,0,0-2.72,4.35A13.92,13.92,0,0,0,263.8,134.12Z"/><path class="cls-2" d="M175,116.7V149c0,.56-.92.76-1.27.28l-22.32-30c-.09-.13-.33-.07-.33.07V151"/><path class="cls-4" d="M292.78,61.5s31.77-9.18,18.34-46.21A29,29,0,0,0,294.75,0H244.64V108.05h21.61V58.44l27.51,49.61h23.59v-6.12Zm-3-20.73H265.29V18.86h24.46C305.38,30.58,289.75,40.77,289.75,40.77Z"/><path class="cls-4" d="M383.57,116.08a18.26,18.26,0,1,0,18.25,18.25A18.25,18.25,0,0,0,383.57,116.08Zm0,34.5a16.25,16.25,0,1,1,16.25-16.25A16.24,16.24,0,0,1,383.57,150.58Z"/><path class="cls-4" d="M390,130.12c0-4.1-2.88-5.54-6.89-5.54h-6.16v19.69h2.5V136H383l4.74,8.32h2.84l-5-8.6A5.34,5.34,0,0,0,390,130.12Zm-10.55-3.51h3.3c3.07,0,4.76.92,4.76,3.51s-1.69,3.8-4.76,3.8h-3.3Z"/></g></g></svg>